<svg width="292" height="57" viewBox="0 0 292 57" fill="none" xmlns="http://www.w3.org/2000/svg">
<path d="M21.3333 52.096L20.9067 52.5653C20.6222 52.9067 20.1813 53.3049 19.584 53.76C19.0151 54.2151 18.3467 54.6702 17.5787 55.1253C16.8391 55.5805 15.9289 55.9645 14.848 56.2773C13.7671 56.6187 12.6578 56.7893 11.52 56.7893C3.84 56.7893 4.17233e-07 52.992 4.17233e-07 45.3973C4.17233e-07 43.9182 0.270223 42.5671 0.810667 41.344C1.35111 40.0925 2.048 39.04 2.90133 38.1867C3.75467 37.3333 4.77867 36.5796 5.97333 35.9253C7.168 35.2427 8.36267 34.7165 9.55733 34.3467C10.7804 33.9485 12.0604 33.6213 13.3973 33.3653C14.7342 33.1093 15.9289 32.9387 16.9813 32.8533C18.0338 32.768 19.0436 32.7253 20.0107 32.7253V31.9573C20.0107 30.2222 19.5413 28.9991 18.6027 28.288C17.6924 27.5769 16.2133 27.2213 14.1653 27.2213C12.4018 27.2213 10.5671 27.4347 8.66133 27.8613C6.75556 28.2596 5.26222 28.7431 4.18133 29.312L1.45067 23.5093C3.38489 22.2578 5.90222 21.1627 9.00267 20.224C12.1031 19.2569 15.2604 18.7733 18.4747 18.7733C21.3191 18.7733 23.6658 19.0578 25.5147 19.6267C27.3636 20.1671 28.8569 21.1058 29.9947 22.4427C31.1609 23.7511 31.9858 25.4293 32.4693 27.4773C32.9529 29.4969 33.1947 32.0711 33.1947 35.2V52.5653L34.3893 55.8933H22.6987L21.3333 52.096ZM17.9627 49.28C18.3324 49.28 18.6738 49.2089 18.9867 49.0667C19.328 48.896 19.584 48.7396 19.7547 48.5973C19.9253 48.4267 20.0107 48.3413 20.0107 48.3413V38.1013C18.2756 38.1013 16.896 38.5849 15.872 39.552C14.848 40.4907 14.336 41.9556 14.336 43.9467C14.336 47.5022 15.5449 49.28 17.9627 49.28ZM59.5153 50.2187C59.3447 50.6169 58.9891 51.1431 58.4487 51.7973C57.9367 52.4516 57.254 53.1769 56.4007 53.9733C55.5473 54.7413 54.4949 55.3956 53.2433 55.936C51.9918 56.5049 50.726 56.7893 49.446 56.7893C45.4353 56.7893 42.5624 55.5947 40.8273 53.2053C39.1207 50.816 38.2673 46.8338 38.2673 41.2587V26.0693L36.774 24.5333V19.6267H52.262V43.9467C52.2336 45.2267 52.4469 46.1796 52.902 46.8053C53.3571 47.4027 54.182 47.7013 55.3767 47.7013C55.5473 47.7013 55.7038 47.7013 55.846 47.7013C55.9882 47.6729 56.1304 47.6445 56.2727 47.616C56.4149 47.5591 56.5287 47.5165 56.614 47.488C56.7278 47.4596 56.8558 47.4169 56.998 47.36C57.1402 47.2747 57.254 47.2036 57.3393 47.1467C57.4247 47.0898 57.5384 47.0187 57.6807 46.9333C57.8229 46.8196 57.9224 46.7342 57.9793 46.6773C58.0647 46.6205 58.1784 46.5351 58.3207 46.4213C58.4913 46.2791 58.6193 46.1796 58.7047 46.1227V26.0693L56.4007 24.5333V19.6267H72.6567V55.8933H60.838L59.5153 50.2187ZM88.5103 56.7893C84.6703 56.7893 81.9823 55.6373 80.4463 53.3333C78.9388 51.0293 78.185 47.1325 78.185 41.6427V27.136H75.241V21.2053L80.2757 19.6267L84.6277 9.68534H92.137V19.6267H99.1343V27.136H92.009V43.008C92.009 45.2836 92.3361 46.7911 92.9903 47.5307C93.6446 48.2702 94.6543 48.64 96.0197 48.64C96.617 48.64 97.1574 48.5689 97.641 48.4267C98.1246 48.2845 98.5228 48.0853 98.8357 47.8293V53.632C98.409 54.0587 97.8543 54.4853 97.1717 54.912C96.489 55.3102 95.3512 55.7227 93.7583 56.1493C92.1939 56.576 90.4446 56.7893 88.5103 56.7893ZM120.053 51.6693C121.305 51.6693 122.258 51.1573 122.912 50.1333C123.595 49.0809 123.936 47.6445 123.936 45.824V32.3413C123.936 26.7947 122.628 24.0213 120.011 24.0213C118.788 24.0213 117.835 24.5191 117.152 25.5147C116.469 26.5102 116.128 27.9182 116.128 29.7387V43.6053C116.128 48.9813 117.436 51.6693 120.053 51.6693ZM119.712 56.7893C113.198 56.7893 108.434 55.3102 105.419 52.352C102.404 49.3938 100.896 44.672 100.896 38.1867C100.896 31.7582 102.418 26.9227 105.461 23.68C108.505 20.4089 113.454 18.7733 120.309 18.7733C126.994 18.7733 131.815 20.3378 134.773 23.4667C137.76 26.5671 139.253 31.2747 139.253 37.5893C139.253 44.1316 137.675 48.9671 134.517 52.096C131.388 55.2249 126.453 56.7893 119.712 56.7893Z" fill="url(#paint0_linear_1_59)"/>
<path d="M164.68 55.8933L158.067 38.4427L165.064 19.6267H181.064L169.885 36.3947L181.32 55.8933H164.68ZM143.304 55.8933V7.63734L140.744 6.10134V2.13334L154.44 7.62939e-06H157.213V55.8933H143.304ZM196.683 55.8933H182.901V28.288L180.341 26.7093V21.888L189.515 19.6267H192.971L194.208 29.7813C195.374 22.8125 199.115 19.328 205.429 19.328C206.14 19.328 206.88 19.456 207.648 19.712L206.197 34.9013C205.6 34.3609 204.292 34.0907 202.272 34.0907C199.371 34.0907 197.508 34.8587 196.683 36.3947V55.8933ZM229.458 52.096L229.032 52.5653C228.747 52.9067 228.306 53.3049 227.709 53.76C227.14 54.2151 226.472 54.6702 225.704 55.1253C224.964 55.5805 224.054 55.9645 222.973 56.2773C221.892 56.6187 220.783 56.7893 219.645 56.7893C211.965 56.7893 208.125 52.992 208.125 45.3973C208.125 43.9182 208.395 42.5671 208.936 41.344C209.476 40.0925 210.173 39.04 211.026 38.1867C211.88 37.3333 212.904 36.5796 214.098 35.9253C215.293 35.2427 216.488 34.7165 217.682 34.3467C218.905 33.9485 220.185 33.6213 221.522 33.3653C222.859 33.1093 224.054 32.9387 225.106 32.8533C226.159 32.768 227.169 32.7253 228.136 32.7253V31.9573C228.136 30.2222 227.666 28.9991 226.728 28.288C225.817 27.5769 224.338 27.2213 222.29 27.2213C220.527 27.2213 218.692 27.4347 216.786 27.8613C214.881 28.2596 213.387 28.7431 212.306 29.312L209.576 23.5093C211.51 22.2578 214.027 21.1627 217.128 20.224C220.228 19.2569 223.385 18.7733 226.6 18.7733C229.444 18.7733 231.791 19.0578 233.64 19.6267C235.489 20.1671 236.982 21.1058 238.12 22.4427C239.286 23.7511 240.111 25.4293 240.594 27.4773C241.078 29.4969 241.32 32.0711 241.32 35.2V52.5653L242.514 55.8933H230.824L229.458 52.096ZM226.088 49.28C226.457 49.28 226.799 49.2089 227.112 49.0667C227.453 48.896 227.709 48.7396 227.88 48.5973C228.05 48.4267 228.136 48.3413 228.136 48.3413V38.1013C226.401 38.1013 225.021 38.5849 223.997 39.552C222.973 40.4907 222.461 41.9556 222.461 43.9467C222.461 47.5022 223.67 49.28 226.088 49.28ZM261.624 55.8933H247.758V27.136H243.619V21.4613L247.928 19.6267V15.9147C247.928 13.0418 248.327 10.5529 249.123 8.44801C249.919 6.34312 251.029 4.70756 252.451 3.54134C253.902 2.37512 255.495 1.53601 257.23 1.02401C258.993 0.483564 260.956 0.213341 263.118 0.213341C265.052 0.213341 266.872 0.469341 268.579 0.981342C270.286 1.49334 271.352 1.96267 271.779 2.38934L270.158 8.87468C268.792 8.19201 267.384 7.85067 265.934 7.85067C265.564 7.85067 265.223 7.87912 264.91 7.93601C262.719 8.27734 261.624 10.1405 261.624 13.5253V19.6267H267.128V27.136H261.624V55.8933ZM280.76 56.7893C276.92 56.7893 274.232 55.6373 272.696 53.3333C271.189 51.0293 270.435 47.1325 270.435 41.6427V27.136H267.491V21.2053L272.526 19.6267L276.878 9.68534H284.387V19.6267H291.384V27.136H284.259V43.008C284.259 45.2836 284.586 46.7911 285.24 47.5307C285.895 48.2702 286.904 48.64 288.27 48.64C288.867 48.64 289.407 48.5689 289.891 48.4267C290.375 48.2845 290.773 48.0853 291.086 47.8293V53.632C290.659 54.0587 290.104 54.4853 289.422 54.912C288.739 55.3102 287.601 55.7227 286.008 56.1493C284.444 56.576 282.695 56.7893 280.76 56.7893Z" fill="url(#paint1_linear_1_59)"/>
<defs>
<linearGradient id="paint0_linear_1_59" x1="-171.802" y1="40.8933" x2="463.198" y2="40.8933" gradientUnits="userSpaceOnUse">
<stop stop-color="#C3C1C1"/>
<stop offset="1" stop-color="#333333"/>
</linearGradient>
<linearGradient id="paint1_linear_1_59" x1="-171.802" y1="40.8933" x2="463.198" y2="40.8933" gradientUnits="userSpaceOnUse">
<stop offset="0.26895" stop-color="white"/>
<stop offset="1" stop-color="white"/>
</linearGradient>
</defs>
</svg>
